<svg width="33" height="35" viewBox="0 0 323 330" fill="none" xmlns="http://www.w3.org/2000/svg">
<path fill-rule="evenodd" clip-rule="evenodd" d="M208.146 90.7948C207.961 113.785 207.776 136.749 197.124 155.198C187.523 171.829 169.951 183.063 152.369 194.304C149.052 196.425 145.735 198.545 142.471 200.703C144.304 201.8 146.168 202.899 148.048 204.007C160.202 211.169 173.032 218.73 182.519 228.894C185.126 231.688 187.457 234.816 189.445 238.259C198.123 253.29 198.305 270.896 191.48 285.513C192.13 284.55 192.751 283.557 193.341 282.535C193.858 281.639 194.344 280.734 194.799 279.82C202.895 263.568 203.649 243.8 204.402 224.044C205.204 203.006 206.005 181.983 215.673 165.237C226.308 146.818 246.105 135.28 265.924 123.729C281.527 114.637 297.143 105.536 308.313 93.0626C310.845 90.2354 313.125 87.1058 315.098 83.6885C330.503 57.0064 321.361 22.8881 294.679 7.48323C267.997 -7.92167 233.879 1.22029 218.474 27.9024C216.637 31.0835 215.15 34.3704 213.999 37.7187C208.444 53.8839 208.295 72.3482 208.146 90.7948ZM138.467 203.391C126.854 211.323 116.223 219.928 109.1 230.921C108.635 231.639 108.186 232.372 107.753 233.121C94.1082 256.755 102.206 286.977 125.84 300.622C140.207 308.917 157.009 309.177 171.041 302.796C191.47 289.249 198.087 261.962 185.662 240.443C183.842 237.289 181.709 234.428 179.326 231.875C170.307 222.212 158.1 215.01 145.903 207.815C143.415 206.347 140.927 204.879 138.467 203.391Z" fill="#011124"/>
<path fill-rule="evenodd" clip-rule="evenodd" d="M101.055 168.85C88.9822 147.94 96.938 116.953 84.8654 96.043C76.004 80.6945 56.378 75.4358 41.0295 84.2972C25.681 93.1587 20.4222 112.785 29.2837 128.133C41.2285 148.822 71.4486 157.489 83.3935 178.178L87.3002 184.945C102.799 211.789 91.3 249.929 100.417 279.555C101.434 282.859 102.835 286.101 104.637 289.223C117.555 311.597 146.165 319.263 168.54 306.345C190.914 293.427 198.58 264.817 185.662 242.443C183.841 239.289 181.709 236.428 179.326 233.875C158.414 211.472 120.365 202.296 105.042 175.756L101.055 168.85Z" fill="#011124"/>
</svg>
