<svg width="732" height="328" viewBox="0 0 732 328" fill="none" xmlns="http://www.w3.org/2000/svg">
<path d="M310.574 225.513H295.454C291.905 225.513 289.028 222.636 289.028 219.087V219.087C289.028 215.538 291.905 212.661 295.454 212.661H310.574V183.692C310.574 180.578 312.607 177.829 315.584 176.916V176.916C320.14 175.519 324.749 178.926 324.749 183.692V212.661H347.429C350.978 212.661 353.855 215.538 353.855 219.087V219.087C353.855 222.636 350.978 225.513 347.429 225.513H324.749V275.787C324.749 282.843 326.261 287.883 329.285 290.907C332.309 293.931 337.286 295.443 344.216 295.443H347.429C350.978 295.443 353.855 298.32 353.855 301.869V301.869C353.855 305.418 350.978 308.295 347.429 308.295H344.216C332.75 308.295 324.245 305.586 318.701 300.168C313.283 294.75 310.574 286.434 310.574 275.22V225.513Z" fill="#08364d"/>
<path d="M415.227 210.771C429.969 210.771 442.065 216 451.515 226.458C461.091 236.79 465.312 249.579 464.178 264.825H380.073C381.081 274.401 384.924 282.276 391.602 288.45C398.406 294.498 406.659 297.522 416.361 297.522C423.795 297.522 430.41 295.695 436.206 292.041C440.235 289.501 443.594 286.322 446.284 282.503C448.3 279.64 451.972 278.18 455.198 279.541V279.541C458.648 280.996 460.219 285.07 458.166 288.201C454.406 293.935 449.543 298.743 443.577 302.625C435.639 307.665 426.504 310.185 416.172 310.185C401.934 310.185 389.964 305.46 380.262 296.01C370.686 286.434 365.898 274.59 365.898 260.478C365.898 246.366 370.623 234.585 380.073 225.135C389.523 215.559 401.241 210.771 415.227 210.771ZM415.227 223.434C406.533 223.434 398.973 226.206 392.547 231.75C386.121 237.294 382.089 244.413 380.451 253.107H449.814C448.428 244.539 444.522 237.483 438.096 231.939C431.796 226.269 424.173 223.434 415.227 223.434Z" fill="#08364d"/>
<path d="M523.78 210.771C534.616 210.771 543.436 213.669 550.24 219.465C557.044 225.135 560.446 233.136 560.446 243.468V301.208C560.446 305.122 557.272 308.295 553.358 308.295V308.295C549.444 308.295 546.271 305.122 546.271 301.208V291.096C537.829 303.822 525.733 310.185 509.983 310.185C500.785 310.185 493.351 307.854 487.681 303.192C482.137 298.404 479.365 291.978 479.365 283.914C479.365 275.346 482.452 268.731 488.626 264.069C494.926 259.407 503.053 256.572 513.007 255.564L534.364 253.107C542.302 252.351 546.271 248.697 546.271 242.145C546.271 236.223 544.192 231.561 540.034 228.159C535.876 224.757 530.395 223.056 523.591 223.056C516.787 223.056 510.928 224.757 506.014 228.159C502.863 230.34 500.36 233.273 498.504 236.956C496.691 240.555 492.798 242.97 488.911 241.905V241.905C485.17 240.88 482.842 237.029 484.357 233.458C487.026 227.167 491.157 222.125 496.753 218.331C504.313 213.291 513.322 210.771 523.78 210.771ZM512.44 298.278C522.142 298.278 530.206 295.065 536.632 288.639C543.058 282.087 546.271 274.464 546.271 265.77V260.289C544.381 262.431 540.097 263.88 533.419 264.636L512.818 266.904C507.022 267.66 502.36 269.424 498.832 272.196C495.304 274.842 493.54 278.496 493.54 283.158C493.54 287.694 495.241 291.348 498.643 294.12C502.171 296.892 506.77 298.278 512.44 298.278Z" fill="#08364d"/>
<path d="M692.639 210.771C703.727 210.771 712.862 214.677 720.044 222.489C727.352 230.301 731.006 240.129 731.006 251.973V301.208C731.006 305.122 727.833 308.295 723.919 308.295V308.295C720.005 308.295 716.831 305.122 716.831 301.208V253.674C716.831 245.106 714.311 237.987 709.271 232.317C704.357 226.647 698.12 223.812 690.56 223.812C683.126 223.812 676.889 226.71 671.849 232.506C666.935 238.176 664.478 245.232 664.478 253.674V301.208C664.478 305.122 661.305 308.295 657.391 308.295V308.295C653.477 308.295 650.303 305.122 650.303 301.208V253.674C650.303 245.106 647.783 237.987 642.743 232.317C637.829 226.647 631.655 223.812 624.221 223.812C616.787 223.812 610.55 226.71 605.51 232.506C600.596 238.176 598.139 245.232 598.139 253.674V301.208C598.139 305.122 594.966 308.295 591.052 308.295V308.295C587.138 308.295 583.964 305.122 583.964 301.208V219.749C583.964 215.834 587.138 212.661 591.052 212.661V212.661C594.966 212.661 598.139 215.834 598.139 219.749V226.647C605.321 216.063 615.023 210.771 627.245 210.771C634.427 210.771 640.916 212.661 646.712 216.441C652.508 220.095 656.918 225.072 659.942 231.372C663.092 224.946 667.502 219.906 673.172 216.252C678.968 212.598 685.457 210.771 692.639 210.771Z" fill="#08364d"/>
<path d="M540.327 188.494C540.327 189.077 539.855 189.55 539.272 189.55H517V151.799C517 151.17 517.509 150.661 518.138 150.661V150.661C518.766 150.661 519.276 151.17 519.276 151.799V187.439H539.272C539.855 187.439 540.327 187.911 540.327 188.494V188.494Z" fill="#08364d"/>
<path d="M581.861 188.412C581.861 189.04 581.352 189.55 580.723 189.55V189.55C580.095 189.55 579.585 189.04 579.585 188.412V151.799C579.585 151.17 580.095 150.661 580.723 150.661V150.661C581.352 150.661 581.861 151.17 581.861 151.799V188.412Z" fill="#08364d"/>
<path d="M660.238 150.661C661.248 150.661 662.067 151.48 662.067 152.49V188.412C662.067 189.04 661.557 189.55 660.929 189.55V189.55C660.3 189.55 659.791 189.04 659.791 188.412V154.494L644.608 188.511C644.326 189.143 643.699 189.55 643.007 189.55V189.55C642.314 189.55 641.687 189.143 641.405 188.511L626.222 154.494V188.412C626.222 189.04 625.713 189.55 625.084 189.55V189.55C624.456 189.55 623.946 189.04 623.946 188.412V152.49C623.946 151.48 624.765 150.661 625.775 150.661V150.661C626.497 150.661 627.151 151.085 627.446 151.744L643.007 186.605L658.568 151.744C658.862 151.085 659.516 150.661 660.238 150.661V150.661Z" fill="#08364d"/>
<path d="M703.489 180.794C703.353 180.195 703.764 179.624 704.367 179.506V179.506C705.019 179.379 705.637 179.829 705.794 180.473C706.334 182.677 707.491 184.424 709.266 185.716C711.39 187.235 714.159 187.994 717.573 187.994C720.873 187.994 723.547 187.253 725.595 185.772C727.681 184.253 728.724 182.309 728.724 179.939C728.724 178.235 728.269 176.79 727.359 175.605C726.486 174.42 725.329 173.513 723.888 172.883C722.485 172.253 720.91 171.698 719.166 171.216C717.421 170.735 715.676 170.235 713.931 169.716C712.224 169.198 710.65 168.587 709.209 167.883C707.805 167.179 706.649 166.161 705.738 164.827C704.866 163.494 704.43 161.864 704.43 159.939C704.43 157.124 705.605 154.79 707.957 152.939C710.309 151.05 713.324 150.105 717.004 150.105C720.645 150.105 723.679 151.087 726.107 153.05C728.238 154.741 729.609 156.86 730.22 159.407C730.365 160.009 729.952 160.588 729.344 160.706V160.706C728.696 160.833 728.081 160.39 727.912 159.752C727.375 157.728 726.261 156.031 724.571 154.661C722.598 153.031 720.076 152.216 717.004 152.216C714.007 152.216 711.542 152.939 709.607 154.383C707.673 155.827 706.705 157.679 706.705 159.939C706.705 161.568 707.142 162.939 708.014 164.05C708.924 165.161 710.081 166.013 711.485 166.605C712.926 167.198 714.5 167.716 716.207 168.161C717.952 168.605 719.697 169.087 721.441 169.605C723.186 170.124 724.76 170.772 726.164 171.55C727.605 172.29 728.762 173.364 729.634 174.772C730.545 176.179 731 177.902 731 179.939C731 182.939 729.71 185.383 727.131 187.272C724.59 189.161 721.404 190.105 717.573 190.105C713.666 190.105 710.423 189.179 707.843 187.327C705.559 185.687 704.108 183.509 703.489 180.794Z" fill="#08364d"/>
<path fill-rule="evenodd" clip-rule="evenodd" d="M208.146 90.7948C207.961 113.785 207.776 136.749 197.124 155.198C187.523 171.829 169.951 183.063 152.369 194.304C149.052 196.425 145.735 198.545 142.471 200.703C144.304 201.8 146.168 202.899 148.048 204.007C160.202 211.169 173.032 218.73 182.519 228.894C185.126 231.688 187.457 234.816 189.445 238.259C198.123 253.29 198.305 270.896 191.48 285.513C192.13 284.55 192.751 283.557 193.341 282.535C193.858 281.639 194.344 280.734 194.799 279.82C202.895 263.568 203.649 243.8 204.402 224.044C205.204 203.006 206.005 181.983 215.673 165.237C226.308 146.818 246.105 135.28 265.924 123.729C281.527 114.637 297.143 105.536 308.313 93.0626C310.845 90.2354 313.125 87.1058 315.098 83.6885C330.503 57.0064 321.361 22.8881 294.679 7.48323C267.997 -7.92167 233.879 1.22029 218.474 27.9024C216.637 31.0835 215.15 34.3704 213.999 37.7187C208.444 53.8839 208.295 72.3482 208.146 90.7948ZM138.467 203.391C126.854 211.323 116.223 219.928 109.1 230.921C108.635 231.639 108.186 232.372 107.753 233.121C94.1082 256.755 102.206 286.977 125.84 300.622C140.207 308.917 157.009 309.177 171.041 302.796C191.47 289.249 198.087 261.962 185.662 240.443C183.842 237.289 181.709 234.428 179.326 231.875C170.307 222.212 158.1 215.011 145.903 207.815L145.903 207.815C143.415 206.347 140.927 204.879 138.467 203.391Z" fill="#08364d"/>
<path fill-rule="evenodd" clip-rule="evenodd" d="M101.055 166.85C88.9822 145.94 96.938 114.953 84.8654 94.043C76.004 78.6945 56.378 73.4358 41.0295 82.2972C25.681 91.1587 20.4222 110.785 29.2837 126.133C41.2285 146.822 71.4486 155.489 83.3935 176.178L87.3002 182.945C102.799 209.789 91.3 247.929 100.417 277.555C101.434 280.859 102.835 284.101 104.637 287.223C117.555 309.597 146.165 317.263 168.54 304.345C190.914 291.427 198.58 262.817 185.662 240.443C183.841 237.289 181.709 234.428 179.326 231.875C158.414 209.472 120.365 200.296 105.042 173.756L101.055 166.85Z" fill="#08364d"/>
</svg>
