<svg width="85" height="27" viewBox="0 0 442 157" fill="none" xmlns="http://www.w3.org/2000/svg">
<path d="M21.546 71.408H6.426C2.87702 71.408 0 68.531 0 64.982C0 61.433 2.87702 58.556 6.426 58.556H21.546V29.5868C21.546 26.4729 23.5785 23.7237 26.5555 22.8107C31.1118 21.4135 35.721 24.8211 35.721 29.5868V58.556H58.401C61.95 58.556 64.827 61.433 64.827 64.982C64.827 68.531 61.95 71.408 58.401 71.408H35.721V121.682C35.721 128.738 37.233 133.778 40.257 136.802C43.281 139.826 48.258 141.338 55.188 141.338H58.401C61.95 141.338 64.827 144.215 64.827 147.764C64.827 151.313 61.95 154.19 58.401 154.19H55.188C43.722 154.19 35.217 151.481 29.673 146.063C24.255 140.645 21.546 132.329 21.546 121.115V71.408Z" fill="#011124"/>
<path d="M126.199 56.666C140.941 56.666 153.037 61.895 162.487 72.353C172.063 82.685 176.284 95.474 175.15 110.72H91.0449C92.0529 120.296 95.8959 128.171 102.574 134.345C109.378 140.393 117.631 143.417 127.333 143.417C134.767 143.417 141.382 141.59 147.178 137.936C151.207 135.396 154.566 132.217 157.256 128.398C159.272 125.535 162.944 124.075 166.17 125.436C169.619 126.891 171.191 130.965 169.137 134.096C165.378 139.829 160.515 144.637 154.549 148.52C146.611 153.56 137.476 156.08 127.144 156.08C112.906 156.08 100.936 151.355 91.2339 141.905C81.6579 132.329 76.8699 120.485 76.8699 106.373C76.8699 92.261 81.5949 80.48 91.0449 71.03C100.495 61.454 112.213 56.666 126.199 56.666ZM126.199 69.329C117.505 69.329 109.945 72.101 103.519 77.645C97.0928 83.189 93.0609 90.308 91.4229 99.002H160.786C159.4 90.434 155.494 83.378 149.068 77.834C142.768 72.164 135.145 69.329 126.199 69.329Z" fill="#011124"/>
<path d="M234.751 56.666C245.587 56.666 254.407 59.564 261.211 65.36C268.015 71.03 271.417 79.031 271.417 89.363V147.103C271.417 151.017 268.244 154.19 264.33 154.19C260.415 154.19 257.242 151.017 257.242 147.102V136.991C248.8 149.717 236.704 156.08 220.954 156.08C211.756 156.08 204.322 153.749 198.652 149.087C193.108 144.299 190.336 137.873 190.336 129.809C190.336 121.241 193.423 114.626 199.597 109.964C205.897 105.302 214.024 102.467 223.978 101.459L245.335 99.002C253.273 98.246 257.242 94.592 257.242 88.04C257.242 82.118 255.163 77.456 251.005 74.054C246.847 70.652 241.366 68.951 234.562 68.951C227.758 68.951 221.899 70.652 216.985 74.054C213.835 76.2352 211.332 79.1673 209.476 82.8504C207.662 86.45 203.77 88.8647 199.883 87.7997C196.142 86.7749 193.814 82.9237 195.328 79.3532C197.997 73.0617 202.129 68.0193 207.724 64.226C215.284 59.186 224.293 56.666 234.751 56.666ZM223.411 144.173C233.113 144.173 241.177 140.96 247.603 134.534C254.029 127.982 257.242 120.359 257.242 111.665V106.184C255.352 108.326 251.068 109.775 244.39 110.531L223.789 112.799C217.993 113.555 213.331 115.319 209.803 118.091C206.275 120.737 204.511 124.391 204.511 129.053C204.511 133.589 206.212 137.243 209.614 140.015C213.142 142.787 217.741 144.173 223.411 144.173Z" fill="#011124"/>
<path d="M403.611 56.666C414.699 56.666 423.834 60.572 431.016 68.384C438.324 76.196 441.978 86.024 441.978 97.868V147.103C441.978 151.017 438.805 154.19 434.891 154.19C430.976 154.19 427.803 151.017 427.803 147.103V99.569C427.803 91.001 425.283 83.882 420.243 78.212C415.329 72.542 409.092 69.707 401.532 69.707C394.098 69.707 387.861 72.605 382.821 78.401C377.907 84.071 375.45 91.127 375.45 99.569V147.102C375.45 151.017 372.277 154.19 368.362 154.19C364.448 154.19 361.275 151.017 361.275 147.102V99.569C361.275 91.001 358.755 83.882 353.715 78.212C348.801 72.542 342.627 69.707 335.193 69.707C327.759 69.707 321.522 72.605 316.482 78.401C311.568 84.071 309.111 91.127 309.111 99.569V147.103C309.111 151.017 305.938 154.19 302.023 154.19C298.109 154.19 294.936 151.017 294.936 147.103V65.6435C294.936 61.7292 298.109 58.556 302.023 58.556C305.938 58.556 309.111 61.7292 309.111 65.6435V72.542C316.293 61.958 325.995 56.666 338.217 56.666C345.399 56.666 351.888 58.556 357.684 62.336C363.48 65.99 367.89 70.967 370.914 77.267C374.064 70.841 378.474 65.801 384.144 62.147C389.94 58.493 396.429 56.666 403.611 56.666Z" fill="#011124"/>
<path d="M251.327 38.3889C251.327 38.9719 250.855 39.4444 250.272 39.4444H228V1.69347C228 1.06502 228.509 0.555554 229.138 0.555554C229.766 0.555554 230.276 1.06502 230.276 1.69347V37.3333H250.272C250.855 37.3333 251.327 37.8059 251.327 38.3889Z" fill="#011124"/>
<path d="M292.861 38.3065C292.861 38.935 292.352 39.4444 291.723 39.4444C291.095 39.4444 290.585 38.935 290.585 38.3065V1.69347C290.585 1.06502 291.095 0.555554 291.723 0.555554C292.352 0.555554 292.861 1.06502 292.861 1.69347V38.3065Z" fill="#011124"/>
<path d="M371.238 0.555554C372.248 0.555554 373.067 1.37441 373.067 2.38453V38.3065C373.067 38.935 372.557 39.4444 371.929 39.4444C371.3 39.4444 370.791 38.935 370.791 38.3065V4.38889L355.608 38.4053C355.326 39.0374 354.699 39.4444 354.007 39.4444C353.314 39.4444 352.687 39.0374 352.405 38.4053L337.222 4.38889V38.3065C337.222 38.935 336.713 39.4444 336.084 39.4444C335.456 39.4444 334.946 38.935 334.946 38.3065V2.38453C334.946 1.37441 335.765 0.555554 336.775 0.555554C337.497 0.555554 338.151 0.979976 338.446 1.63902L354.007 36.5L369.568 1.63902C369.862 0.979979 370.516 0.555554 371.238 0.555554Z" fill="#011124"/>
<path d="M414.489 30.689C414.353 30.09 414.764 29.5188 415.367 29.4011C416.019 29.2738 416.637 29.7233 416.794 30.3681C417.334 32.5715 418.491 34.3192 420.266 35.6111C422.39 37.1296 425.159 37.8889 428.573 37.8889C431.873 37.8889 434.547 37.1481 436.595 35.6667C438.681 34.1481 439.724 32.2037 439.724 29.8333C439.724 28.1296 439.269 26.6852 438.359 25.5C437.486 24.3148 436.329 23.4074 434.888 22.7778C433.485 22.1482 431.91 21.5926 430.166 21.1111C428.421 20.6296 426.676 20.1296 424.931 19.6111C423.224 19.0926 421.65 18.4815 420.209 17.7778C418.805 17.0741 417.649 16.0556 416.738 14.7222C415.866 13.3889 415.43 11.7593 415.43 9.83333C415.43 7.01852 416.605 4.68519 418.957 2.83333C421.309 0.944444 424.324 0 428.004 0C431.645 0 434.679 0.981482 437.107 2.94445C439.238 4.63535 440.609 6.7545 441.22 9.30188C441.365 9.90419 440.952 10.4824 440.344 10.6012C439.696 10.7276 439.081 10.2851 438.912 9.64725C438.375 7.62281 437.261 5.92558 435.571 4.55556C433.598 2.92593 431.076 2.11111 428.004 2.11111C425.007 2.11111 422.542 2.83333 420.607 4.27778C418.673 5.72222 417.705 7.57407 417.705 9.83333C417.705 11.463 418.142 12.8333 419.014 13.9444C419.924 15.0556 421.081 15.9074 422.485 16.5C423.926 17.0926 425.5 17.6111 427.207 18.0556C428.952 18.5 430.697 18.9815 432.441 19.5C434.186 20.0185 435.76 20.6667 437.164 21.4444C438.605 22.1852 439.762 23.2593 440.634 24.6667C441.545 26.0741 442 27.7963 442 29.8333C442 32.8333 440.71 35.2778 438.131 37.1667C435.59 39.0556 432.404 40 428.573 40C424.666 40 421.423 39.0741 418.843 37.2222C416.559 35.582 415.108 33.4043 414.489 30.689Z" fill="#011124"/>
</svg>
